<svg width="97" height="20" viewBox="0 0 97 20" fill="none" xmlns="http://www.w3.org/2000/svg">
<path d="M94.0208 11.4168C93.8866 11.8836 93.6207 12.3017 93.2549 12.6212C92.889 12.9407 92.4389 13.1479 91.9583 13.218C91.5825 13.2726 91.1995 13.2506 90.8324 13.1534C90.4653 13.0563 90.1216 12.8859 89.8219 12.6526C89.5223 12.4193 89.2729 12.1279 89.0887 11.7958C88.9044 11.4637 88.7892 11.0978 88.75 10.7201C88.7195 10.3409 88.7681 9.95953 88.8926 9.60006C89.0171 9.2406 89.2148 8.91087 89.4733 8.63173C89.7318 8.3526 90.0453 8.13012 90.3942 7.97837C90.743 7.82662 91.1195 7.7489 91.5 7.75012C91.8564 7.75062 92.2095 7.81906 92.5404 7.95179C92.5925 7.97517 92.6514 7.97827 92.7057 7.96047C92.7599 7.94266 92.8056 7.90524 92.8337 7.85554L93.4937 6.64095C93.5079 6.61298 93.5164 6.58247 93.5188 6.55119C93.5212 6.5199 93.5174 6.48845 93.5076 6.45864C93.4978 6.42884 93.4822 6.40125 93.4618 6.37748C93.4413 6.35371 93.4163 6.33422 93.3883 6.32012C92.6796 5.99925 91.9008 5.86405 91.1254 5.92727C90.3501 5.99048 89.6035 6.25003 88.9561 6.68146C88.3088 7.1129 87.7818 7.70202 87.425 8.39334C87.0682 9.08465 86.8933 9.85542 86.9166 10.633C86.9618 11.788 87.4365 12.8845 88.2479 13.7077C89.0592 14.5309 90.1487 15.0215 91.3029 15.0835C92.5119 15.1371 93.6931 14.7103 94.5887 13.8963C95.4843 13.0823 96.0215 11.9471 96.0833 10.7385V9.82179C96.0821 9.76137 96.0576 9.70376 96.0149 9.66104C95.9721 9.61831 95.9145 9.59379 95.8541 9.59262H91.7291C91.6683 9.59262 91.61 9.61676 91.5671 9.65974C91.5241 9.70272 91.5 9.76101 91.5 9.82179V11.1968C91.5 11.2576 91.5241 11.3159 91.5671 11.3588C91.61 11.4018 91.6683 11.426 91.7291 11.426H94.0208" fill="#AAAAAA"/>
<path d="M67.9437 8.85011C67.5924 8.84891 67.2443 8.91698 66.9194 9.05044C66.5944 9.1839 66.299 9.38012 66.0499 9.62788C65.8009 9.87564 65.6032 10.1701 65.468 10.4943C65.3329 10.8186 65.2631 11.1663 65.2625 11.5176V14.2126C65.2625 14.322 65.3059 14.4269 65.3833 14.5043C65.4606 14.5817 65.5655 14.6251 65.675 14.6251H66.6375C66.7469 14.6251 66.8518 14.5817 66.9291 14.5043C67.0065 14.4269 67.05 14.322 67.05 14.2126V11.5176C67.0499 11.3927 67.0761 11.2691 67.127 11.155C67.1778 11.0409 67.2522 10.9388 67.3451 10.8553C67.4381 10.7718 67.5476 10.7089 67.6666 10.6706C67.7855 10.6323 67.9112 10.6195 68.0354 10.633C68.2581 10.6611 68.4628 10.7699 68.6107 10.9389C68.7585 11.1078 68.8392 11.3252 68.8375 11.5497V14.2126C68.8375 14.322 68.8809 14.4269 68.9583 14.5043C69.0356 14.5817 69.1405 14.6251 69.25 14.6251H70.2125C70.3219 14.6251 70.4268 14.5817 70.5041 14.5043C70.5815 14.4269 70.625 14.322 70.625 14.2126V11.5176C70.6244 11.1663 70.5545 10.8186 70.4194 10.4943C70.2842 10.1701 70.0865 9.87564 69.8375 9.62788C69.5884 9.38012 69.293 9.1839 68.968 9.05044C68.6431 8.91698 68.295 8.84891 67.9437 8.85011Z" fill="#AAAAAA"/>
<path d="M64.025 9.2627H62.7875C62.5597 9.2627 62.375 9.44738 62.375 9.6752V14.2127C62.375 14.4405 62.5597 14.6252 62.7875 14.6252H64.025C64.2528 14.6252 64.4375 14.4405 64.4375 14.2127V9.6752C64.4375 9.44738 64.2528 9.2627 64.025 9.2627Z" fill="#AAAAAA"/>
<path d="M63.4062 8.4375C63.9758 8.4375 64.4375 7.97579 64.4375 7.40625C64.4375 6.83671 63.9758 6.375 63.4062 6.375C62.8367 6.375 62.375 6.83671 62.375 7.40625C62.375 7.97579 62.8367 8.4375 63.4062 8.4375Z" fill="#AAAAAA"/>
<path d="M38.7034 14.1669C39.3811 14.1895 40.0565 14.0761 40.6897 13.8333C41.3228 13.5905 41.9009 13.2233 42.3897 12.7533C42.8785 12.2833 43.2681 11.72 43.5356 11.0969C43.803 10.4737 43.9428 9.8033 43.9467 9.12519C44.2573 8.74084 44.4879 8.29828 44.6251 7.82353C44.6353 7.78602 44.6345 7.74635 44.6227 7.7093C44.6109 7.67225 44.5886 7.63939 44.5586 7.61469C44.5286 7.58999 44.4921 7.5745 44.4534 7.57008C44.4148 7.56566 44.3757 7.5725 44.3409 7.58978C44.1784 7.66799 43.9955 7.69326 43.8179 7.66201C43.6402 7.63077 43.4769 7.54459 43.3509 7.41561C43.19 7.23942 42.9954 7.09731 42.7785 6.99771C42.5617 6.89812 42.3271 6.84305 42.0886 6.83579C41.8501 6.82852 41.6126 6.8692 41.3901 6.95541C41.1676 7.04163 40.9647 7.17162 40.7934 7.33769C40.5588 7.56487 40.387 7.84887 40.2946 8.16209C40.2023 8.4753 40.1925 8.80709 40.2663 9.12519C38.7309 9.21686 37.6767 8.48811 36.8334 7.48894C36.808 7.46025 36.7749 7.43956 36.738 7.42939C36.7011 7.41922 36.662 7.42002 36.6256 7.43169C36.5891 7.44335 36.5569 7.46538 36.5327 7.49508C36.5086 7.52478 36.4936 7.56087 36.4896 7.59894C36.329 8.49014 36.4449 9.40915 36.8217 10.2326C37.1986 11.056 37.8185 11.7443 38.598 12.2052C38.0753 12.8046 37.3413 13.179 36.5492 13.2502C36.5068 13.2572 36.4676 13.2774 36.4372 13.3078C36.4067 13.3382 36.3866 13.3773 36.3795 13.4198C36.3724 13.4622 36.3788 13.5058 36.3977 13.5444C36.4167 13.583 36.4472 13.6148 36.485 13.6352C37.1742 13.9796 37.933 14.1614 38.7034 14.1669Z" fill="#AAAAAA"/>
<circle cx="10" cy="10" r="10" fill="#F25822"/>
<path d="M11.7917 6.60492C11.7917 6.54414 11.7675 6.48586 11.7245 6.44288C11.6816 6.3999 11.6233 6.37576 11.5625 6.37576H10.4167C9.83968 6.34702 9.27477 6.54781 8.84537 6.93427C8.41597 7.32073 8.15698 7.86144 8.125 8.43826V9.67576H6.97917C6.91839 9.67576 6.8601 9.6999 6.81712 9.74288C6.77414 9.78586 6.75 9.84415 6.75 9.90492V11.0966C6.75 11.1574 6.77414 11.2157 6.81712 11.2586C6.8601 11.3016 6.91839 11.3258 6.97917 11.3258H8.125V14.3966C8.125 14.4574 8.14914 14.5157 8.19212 14.5586C8.2351 14.6016 8.29339 14.6258 8.35417 14.6258H9.72917C9.78994 14.6258 9.84823 14.6016 9.89121 14.5586C9.93419 14.5157 9.95833 14.4574 9.95833 14.3966V11.3258H11.1592C11.2101 11.3265 11.2599 11.3102 11.3006 11.2795C11.3412 11.2488 11.3705 11.2054 11.3837 11.1562L11.7137 9.96451C11.7229 9.93065 11.7241 9.89515 11.7173 9.86074C11.7106 9.82633 11.696 9.79393 11.6748 9.76604C11.6535 9.73814 11.6261 9.7155 11.5947 9.69985C11.5634 9.6842 11.5288 9.67595 11.4937 9.67576H9.95833V8.43826C9.96973 8.32481 10.023 8.21968 10.1078 8.14341C10.1925 8.06713 10.3026 8.02519 10.4167 8.02576H11.5625C11.6233 8.02576 11.6816 8.00161 11.7245 7.95864C11.7675 7.91566 11.7917 7.85737 11.7917 7.79659V6.60492Z" fill="white"/>
</svg>
