<svg width="138" height="30" viewBox="0 0 138 30" fill="none" xmlns="http://www.w3.org/2000/svg">
<path d="M133.667 16.3335C133.471 17.0124 133.085 17.6207 132.553 18.0854C132.021 18.5501 131.366 18.8515 130.667 18.9535C130.12 19.0328 129.563 19.0008 129.029 18.8595C128.495 18.7182 127.995 18.4704 127.559 18.131C127.123 17.7917 126.761 17.3678 126.493 16.8848C126.225 16.4017 126.057 15.8695 126 15.3201C125.956 14.7686 126.026 14.2138 126.207 13.691C126.389 13.1681 126.676 12.6885 127.052 12.2825C127.428 11.8765 127.884 11.5529 128.392 11.3321C128.899 11.1114 129.447 10.9984 130 11.0001C130.518 11.0009 131.032 11.1004 131.513 11.2935C131.589 11.3275 131.675 11.332 131.754 11.3061C131.833 11.2802 131.899 11.2258 131.94 11.1535L132.9 9.3868C132.921 9.3461 132.933 9.30173 132.937 9.25623C132.94 9.21072 132.934 9.16498 132.92 9.12162C132.906 9.07826 132.883 9.03814 132.854 9.00357C132.824 8.96899 132.787 8.94064 132.747 8.92013C131.716 8.4534 130.583 8.25676 129.455 8.34871C128.327 8.44066 127.242 8.81818 126.3 9.44572C125.358 10.0733 124.592 10.9302 124.073 11.9357C123.554 12.9413 123.299 14.0624 123.333 15.1935C123.399 16.8734 124.09 18.4683 125.27 19.6657C126.45 20.8631 128.035 21.5767 129.713 21.6668C131.472 21.7448 133.19 21.124 134.493 19.94C135.795 18.756 136.577 17.1048 136.667 15.3468V14.0135C136.665 13.9256 136.629 13.8418 136.567 13.7796C136.505 13.7175 136.421 13.6818 136.333 13.6801H130.333C130.245 13.6801 130.16 13.7152 130.098 13.7778C130.035 13.8403 130 13.9251 130 14.0135V16.0135C130 16.1019 130.035 16.1867 130.098 16.2492C130.16 16.3117 130.245 16.3468 130.333 16.3468H133.667" fill="#AAAAAA"/>
<path d="M96.1 12.6001C95.589 12.5984 95.0827 12.6974 94.61 12.8915C94.1374 13.0856 93.7076 13.371 93.3454 13.7314C92.9832 14.0918 92.6955 14.5201 92.499 14.9917C92.3024 15.4634 92.2008 15.9692 92.2 16.4801V20.4001C92.2 20.5593 92.2632 20.7119 92.3757 20.8244C92.4882 20.9369 92.6408 21.0001 92.8 21.0001H94.2C94.3591 21.0001 94.5117 20.9369 94.6242 20.8244C94.7367 20.7119 94.8 20.5593 94.8 20.4001V16.4801C94.7998 16.2984 94.838 16.1187 94.912 15.9527C94.986 15.7867 95.0941 15.6381 95.2293 15.5167C95.3646 15.3953 95.5239 15.3038 95.6969 15.2481C95.8698 15.1924 96.0526 15.1738 96.2333 15.1935C96.5573 15.2343 96.8551 15.3926 97.0701 15.6383C97.2851 15.8841 97.4025 16.2002 97.4 16.5268V20.4001C97.4 20.5593 97.4632 20.7119 97.5757 20.8244C97.6882 20.9369 97.8408 21.0001 98 21.0001H99.4C99.5591 21.0001 99.7117 20.9369 99.8242 20.8244C99.9367 20.7119 100 20.5593 100 20.4001V16.4801C99.9991 15.9692 99.8975 15.4634 99.7009 14.9917C99.5044 14.5201 99.2167 14.0918 98.8545 13.7314C98.4923 13.371 98.0625 13.0856 97.5899 12.8915C97.1172 12.6974 96.6109 12.5984 96.1 12.6001Z" fill="#AAAAAA"/>
<path d="M90.4 13.2002H88.6C88.2686 13.2002 88 13.4688 88 13.8002V20.4002C88 20.7316 88.2686 21.0002 88.6 21.0002H90.4C90.7314 21.0002 91 20.7316 91 20.4002V13.8002C91 13.4688 90.7314 13.2002 90.4 13.2002Z" fill="#AAAAAA"/>
<path d="M89.5 12C90.3284 12 91 11.3284 91 10.5C91 9.67157 90.3284 9 89.5 9C88.6716 9 88 9.67157 88 10.5C88 11.3284 88.6716 12 89.5 12Z" fill="#AAAAAA"/>
<path d="M55.3867 20.3335C56.3725 20.3665 57.3549 20.2015 58.2759 19.8484C59.1968 19.4952 60.0376 18.961 60.7486 18.2774C61.4596 17.5938 62.0264 16.7745 62.4153 15.8681C62.8043 14.9617 63.0077 13.9865 63.0134 13.0002C63.4651 12.4411 63.8006 11.7974 64 11.1069C64.0149 11.0523 64.0137 10.9946 63.9966 10.9407C63.9794 10.8868 63.9471 10.839 63.9034 10.8031C63.8597 10.7672 63.8066 10.7446 63.7504 10.7382C63.6942 10.7318 63.6374 10.7417 63.5867 10.7669C63.3503 10.8806 63.0843 10.9174 62.8259 10.8719C62.5676 10.8265 62.33 10.7011 62.1467 10.5135C61.9127 10.2572 61.6296 10.0505 61.3142 9.90568C60.9988 9.76081 60.6576 9.68072 60.3107 9.67015C59.9638 9.65958 59.6183 9.71875 59.2947 9.84415C58.971 9.96955 58.6759 10.1586 58.4267 10.4002C58.0855 10.7306 57.8356 11.1437 57.7012 11.5993C57.5669 12.0549 57.5527 12.5375 57.66 13.0002C55.4267 13.1335 53.8934 12.0735 52.6667 10.6202C52.6298 10.5785 52.5816 10.5484 52.528 10.5336C52.4743 10.5188 52.4175 10.5199 52.3644 10.5369C52.3114 10.5539 52.2645 10.5859 52.2294 10.6291C52.1942 10.6723 52.1725 10.7248 52.1667 10.7802C51.933 12.0765 52.1016 13.4132 52.6498 14.6109C53.198 15.8086 54.0995 16.8098 55.2334 17.4802C54.4731 18.3521 53.4055 18.8966 52.2534 19.0002C52.1916 19.0104 52.1347 19.0397 52.0904 19.0839C52.0461 19.1282 52.0168 19.1851 52.0065 19.2468C51.9962 19.3085 52.0055 19.3719 52.033 19.4281C52.0606 19.4843 52.105 19.5305 52.16 19.5602C53.1624 20.0611 54.2662 20.3257 55.3867 20.3335Z" fill="#AAAAAA"/>
<circle cx="15" cy="15" r="15" fill="#F25822"/>
<path d="M18.3333 9.33435C18.3333 9.24594 18.2982 9.16116 18.2357 9.09864C18.1732 9.03613 18.0884 9.00101 18 9.00101H16.3333C15.4941 8.95921 14.6724 9.25127 14.0478 9.8134C13.4232 10.3755 13.0465 11.162 13 12.001V13.801H11.3333C11.2449 13.801 11.1601 13.8361 11.0976 13.8986C11.0351 13.9612 11 14.0459 11 14.1343V15.8677C11 15.9561 11.0351 16.0409 11.0976 16.1034C11.1601 16.1659 11.2449 16.201 11.3333 16.201H13V20.6677C13 20.7561 13.0351 20.8409 13.0976 20.9034C13.1601 20.9659 13.2449 21.001 13.3333 21.001H15.3333C15.4217 21.001 15.5065 20.9659 15.569 20.9034C15.6315 20.8409 15.6667 20.7561 15.6667 20.6677V16.201H17.4133C17.4875 16.2021 17.5598 16.1784 17.619 16.1337C17.6781 16.0891 17.7207 16.0259 17.74 15.9543L18.22 14.221C18.2333 14.1718 18.235 14.1201 18.2252 14.0701C18.2154 14.02 18.1942 13.9729 18.1633 13.9323C18.1324 13.8918 18.0926 13.8588 18.0469 13.8361C18.0013 13.8133 17.951 13.8013 17.9 13.801H15.6667V12.001C15.6832 11.836 15.7607 11.6831 15.884 11.5721C16.0073 11.4612 16.1675 11.4002 16.3333 11.401H18C18.0884 11.401 18.1732 11.3659 18.2357 11.3034C18.2982 11.2409 18.3333 11.1561 18.3333 11.0677V9.33435Z" fill="white"/>
</svg>
